<mxfile host="app.diagrams.net" agent="Mozilla/5.0 (Windows NT 10.0; Win64; x64) AppleWebKit/537.36 (KHTML, like Gecko) Chrome/128.0.0.0 Safari/537.36 Edg/128.0.0.0" version="24.7.5">
  <diagram name="Page-1" id="ipZe1BJ04AktczsMQ5Gt">
    <mxGraphModel dx="834" dy="741" grid="1" gridSize="10" guides="1" tooltips="1" connect="1" arrows="1" fold="1" page="1" pageScale="1" pageWidth="2000" pageHeight="3000" math="0" shadow="0">
      <root>
        <mxCell id="0" />
        <mxCell id="1" parent="0" />
        <mxCell id="X90mC9pYVaTqxXo_M1r8-1" value="" style="shape=cube;whiteSpace=wrap;html=1;boundedLbl=1;backgroundOutline=1;darkOpacity=0.05;darkOpacity2=0.1;size=110;direction=east;flipH=1;fontFamily=Georgia;shadow=0;" vertex="1" parent="1">
          <mxGeometry x="85" y="17.060000000000002" width="125" height="415.13" as="geometry" />
        </mxCell>
        <mxCell id="X90mC9pYVaTqxXo_M1r8-2" value="" style="shape=cube;whiteSpace=wrap;html=1;boundedLbl=1;backgroundOutline=1;darkOpacity=0.05;darkOpacity2=0.1;size=110;direction=east;flipH=1;fillColor=#E1D5E7;strokeColor=#7F00FF;fontFamily=Georgia;" vertex="1" parent="1">
          <mxGeometry x="106" y="27.060000000000002" width="124" height="412" as="geometry" />
        </mxCell>
        <mxCell id="X90mC9pYVaTqxXo_M1r8-3" value="" style="shape=cube;whiteSpace=wrap;html=1;boundedLbl=1;backgroundOutline=1;darkOpacity=0.05;darkOpacity2=0.1;size=7;direction=east;flipH=1;fillColor=#E1D5E7;strokeColor=#7F00FF;fontFamily=Georgia;" vertex="1" parent="1">
          <mxGeometry x="553" y="50" width="30" height="20" as="geometry" />
        </mxCell>
        <mxCell id="X90mC9pYVaTqxXo_M1r8-4" value="" style="shape=cube;whiteSpace=wrap;html=1;boundedLbl=1;backgroundOutline=1;darkOpacity=0.05;darkOpacity2=0.1;size=7;direction=east;flipH=1;fillColor=#f8cecc;strokeColor=#b85450;fontFamily=Georgia;" vertex="1" parent="1">
          <mxGeometry x="550" y="86.88" width="30" height="20" as="geometry" />
        </mxCell>
        <mxCell id="X90mC9pYVaTqxXo_M1r8-5" value="" style="shape=cube;whiteSpace=wrap;html=1;boundedLbl=1;backgroundOutline=1;darkOpacity=0.05;darkOpacity2=0.1;size=7;direction=east;flipH=1;fillColor=#dae8fc;strokeColor=#6c8ebf;fontFamily=Georgia;" vertex="1" parent="1">
          <mxGeometry x="550" y="121" width="30" height="20" as="geometry" />
        </mxCell>
        <mxCell id="X90mC9pYVaTqxXo_M1r8-6" value="" style="shape=cube;whiteSpace=wrap;html=1;boundedLbl=1;backgroundOutline=1;darkOpacity=0.05;darkOpacity2=0.1;size=7;direction=east;flipH=1;fillColor=#d5e8d4;strokeColor=#82b366;fontFamily=Georgia;" vertex="1" parent="1">
          <mxGeometry x="550" y="150" width="30" height="20" as="geometry" />
        </mxCell>
        <mxCell id="X90mC9pYVaTqxXo_M1r8-7" value="&lt;b&gt;ConvLSTM2D&lt;/b&gt;" style="text;html=1;strokeColor=none;fillColor=none;align=center;verticalAlign=middle;whiteSpace=wrap;rounded=0;rotation=-90;fontFamily=Georgia;" vertex="1" parent="1">
          <mxGeometry x="155" y="309.38" width="100" height="30" as="geometry" />
        </mxCell>
        <mxCell id="X90mC9pYVaTqxXo_M1r8-8" value="Conv + Norm + Activation" style="text;html=1;strokeColor=none;fillColor=none;align=left;verticalAlign=middle;whiteSpace=wrap;rounded=0;fontStyle=1;fontFamily=Georgia;" vertex="1" parent="1">
          <mxGeometry x="596" y="50" width="174" height="23.88" as="geometry" />
        </mxCell>
        <mxCell id="X90mC9pYVaTqxXo_M1r8-9" value="Translator" style="text;html=1;strokeColor=none;fillColor=none;align=left;verticalAlign=middle;whiteSpace=wrap;rounded=0;fontStyle=1;fontFamily=Georgia;" vertex="1" parent="1">
          <mxGeometry x="596" y="119.06" width="138" height="23.88" as="geometry" />
        </mxCell>
        <mxCell id="X90mC9pYVaTqxXo_M1r8-10" value="Latent space layer" style="text;html=1;strokeColor=none;fillColor=none;align=left;verticalAlign=middle;whiteSpace=wrap;rounded=0;fontStyle=1;fontFamily=Georgia;" vertex="1" parent="1">
          <mxGeometry x="596" y="150.0000000000001" width="138" height="23.88" as="geometry" />
        </mxCell>
        <mxCell id="X90mC9pYVaTqxXo_M1r8-11" value="" style="shape=cube;whiteSpace=wrap;html=1;boundedLbl=1;backgroundOutline=1;darkOpacity=0.05;darkOpacity2=0.1;size=110;direction=east;flipH=1;fillColor=#E1D5E7;strokeColor=#7F00FF;fontFamily=Georgia;" vertex="1" parent="1">
          <mxGeometry x="131" y="36.870000000000005" width="124" height="412" as="geometry" />
        </mxCell>
        <mxCell id="X90mC9pYVaTqxXo_M1r8-12" value="" style="shape=cube;whiteSpace=wrap;html=1;boundedLbl=1;backgroundOutline=1;darkOpacity=0.05;darkOpacity2=0.1;size=70;direction=east;flipH=1;fillColor=#E1D5E7;strokeColor=#7F00FF;fontFamily=Georgia;" vertex="1" parent="1">
          <mxGeometry x="210" y="203.38" width="84" height="242" as="geometry" />
        </mxCell>
        <mxCell id="X90mC9pYVaTqxXo_M1r8-13" value="" style="shape=cube;whiteSpace=wrap;html=1;boundedLbl=1;backgroundOutline=1;darkOpacity=0.05;darkOpacity2=0.1;size=70;direction=east;flipH=1;fillColor=#E1D5E7;strokeColor=#7F00FF;fontFamily=Georgia;" vertex="1" parent="1">
          <mxGeometry x="229" y="213.38" width="80" height="232" as="geometry" />
        </mxCell>
        <mxCell id="X90mC9pYVaTqxXo_M1r8-14" value="" style="shape=cube;whiteSpace=wrap;html=1;boundedLbl=1;backgroundOutline=1;darkOpacity=0.05;darkOpacity2=0.1;size=70;direction=east;flipH=1;fillColor=#dae8fc;strokeColor=#6c8ebf;fontFamily=Georgia;" vertex="1" parent="1">
          <mxGeometry x="320" y="250" width="84" height="242" as="geometry" />
        </mxCell>
        <mxCell id="X90mC9pYVaTqxXo_M1r8-15" value="" style="shape=cube;whiteSpace=wrap;html=1;boundedLbl=1;backgroundOutline=1;darkOpacity=0.05;darkOpacity2=0.1;size=70;direction=east;flipH=1;fillColor=#dae8fc;strokeColor=#6c8ebf;fontFamily=Georgia;" vertex="1" parent="1">
          <mxGeometry x="339" y="260" width="80" height="232" as="geometry" />
        </mxCell>
        <mxCell id="X90mC9pYVaTqxXo_M1r8-16" value="" style="edgeStyle=orthogonalEdgeStyle;rounded=0;orthogonalLoop=1;jettySize=auto;html=1;fontFamily=Helvetica;fontSize=12;fontColor=default;" edge="1" parent="1">
          <mxGeometry relative="1" as="geometry">
            <mxPoint x="220" y="721.9989655172415" as="sourcePoint" />
            <mxPoint x="345" y="722.0600000000002" as="targetPoint" />
          </mxGeometry>
        </mxCell>
        <mxCell id="X90mC9pYVaTqxXo_M1r8-17" value="" style="shape=cube;whiteSpace=wrap;html=1;boundedLbl=1;backgroundOutline=1;darkOpacity=0.05;darkOpacity2=0.1;size=70;direction=east;flipH=1;fillColor=#f8cecc;strokeColor=#b85450;fontFamily=Georgia;" vertex="1" parent="1">
          <mxGeometry x="131" y="674" width="90" height="90" as="geometry" />
        </mxCell>
        <mxCell id="X90mC9pYVaTqxXo_M1r8-18" value="" style="shape=cube;whiteSpace=wrap;html=1;boundedLbl=1;backgroundOutline=1;darkOpacity=0.05;darkOpacity2=0.1;size=70;direction=east;flipH=1;fillColor=#b0e3e6;fontFamily=Georgia;strokeColor=#0e8088;" vertex="1" parent="1">
          <mxGeometry x="402" y="270" width="84" height="242" as="geometry" />
        </mxCell>
        <mxCell id="X90mC9pYVaTqxXo_M1r8-19" value="" style="shape=cube;whiteSpace=wrap;html=1;boundedLbl=1;backgroundOutline=1;darkOpacity=0.05;darkOpacity2=0.1;size=70;direction=east;flipH=1;fillColor=#dae8fc;strokeColor=#6c8ebf;fontFamily=Georgia;" vertex="1" parent="1">
          <mxGeometry x="460" y="300" width="84" height="242" as="geometry" />
        </mxCell>
        <mxCell id="X90mC9pYVaTqxXo_M1r8-20" value="" style="shape=cube;whiteSpace=wrap;html=1;boundedLbl=1;backgroundOutline=1;darkOpacity=0.05;darkOpacity2=0.1;size=70;direction=east;flipH=1;fillColor=#dae8fc;strokeColor=#6c8ebf;fontFamily=Georgia;" vertex="1" parent="1">
          <mxGeometry x="479" y="310" width="80" height="232" as="geometry" />
        </mxCell>
        <mxCell id="X90mC9pYVaTqxXo_M1r8-21" value="" style="shape=cube;whiteSpace=wrap;html=1;boundedLbl=1;backgroundOutline=1;darkOpacity=0.05;darkOpacity2=0.1;size=70;direction=east;flipH=1;fillColor=#E1D5E7;strokeColor=#7F00FF;fontFamily=Georgia;" vertex="1" parent="1">
          <mxGeometry x="548" y="370" width="84" height="242" as="geometry" />
        </mxCell>
        <mxCell id="X90mC9pYVaTqxXo_M1r8-22" value="" style="shape=cube;whiteSpace=wrap;html=1;boundedLbl=1;backgroundOutline=1;darkOpacity=0.05;darkOpacity2=0.1;size=70;direction=east;flipH=1;fillColor=#E1D5E7;strokeColor=#7F00FF;fontFamily=Georgia;" vertex="1" parent="1">
          <mxGeometry x="567" y="380" width="80" height="232" as="geometry" />
        </mxCell>
        <mxCell id="X90mC9pYVaTqxXo_M1r8-23" value="" style="shape=cube;whiteSpace=wrap;html=1;boundedLbl=1;backgroundOutline=1;darkOpacity=0.05;darkOpacity2=0.1;size=110;direction=east;flipH=1;fontFamily=Georgia;shadow=0;fillColor=#E1D5E7;strokeColor=#7F00FF;" vertex="1" parent="1">
          <mxGeometry x="605" y="300" width="125" height="415.13" as="geometry" />
        </mxCell>
        <mxCell id="X90mC9pYVaTqxXo_M1r8-24" value="" style="shape=cube;whiteSpace=wrap;html=1;boundedLbl=1;backgroundOutline=1;darkOpacity=0.05;darkOpacity2=0.1;size=110;direction=east;flipH=1;fillColor=#E1D5E7;strokeColor=#7F00FF;fontFamily=Georgia;" vertex="1" parent="1">
          <mxGeometry x="626" y="310" width="124" height="412" as="geometry" />
        </mxCell>
        <mxCell id="X90mC9pYVaTqxXo_M1r8-25" value="" style="shape=cube;whiteSpace=wrap;html=1;boundedLbl=1;backgroundOutline=1;darkOpacity=0.05;darkOpacity2=0.1;size=110;direction=east;flipH=1;fontFamily=Georgia;" vertex="1" parent="1">
          <mxGeometry x="651" y="319.81" width="124" height="412" as="geometry" />
        </mxCell>
        <mxCell id="X90mC9pYVaTqxXo_M1r8-26" value="" style="shape=cube;whiteSpace=wrap;html=1;boundedLbl=1;backgroundOutline=1;darkOpacity=0.05;darkOpacity2=0.1;size=70;direction=east;flipH=1;fillColor=#b0e3e6;fontFamily=Georgia;strokeColor=#0e8088;" vertex="1" parent="1">
          <mxGeometry x="370" y="612" width="84" height="242" as="geometry" />
        </mxCell>
        <mxCell id="X90mC9pYVaTqxXo_M1r8-27" value="" style="shape=cube;whiteSpace=wrap;html=1;boundedLbl=1;backgroundOutline=1;darkOpacity=0.05;darkOpacity2=0.1;size=7;direction=east;flipH=1;fontFamily=Georgia;" vertex="1" parent="1">
          <mxGeometry x="548" y="186.38" width="30" height="20" as="geometry" />
        </mxCell>
        <mxCell id="X90mC9pYVaTqxXo_M1r8-28" value="Input/Output" style="text;html=1;strokeColor=none;fillColor=none;align=left;verticalAlign=middle;whiteSpace=wrap;rounded=0;fontStyle=1;fontFamily=Georgia;" vertex="1" parent="1">
          <mxGeometry x="596" y="182.5000000000001" width="138" height="23.88" as="geometry" />
        </mxCell>
        <mxCell id="X90mC9pYVaTqxXo_M1r8-29" value="&lt;font style=&quot;font-size: 20px;&quot;&gt;......&lt;/font&gt;" style="text;html=1;align=center;verticalAlign=middle;whiteSpace=wrap;rounded=0;fontFamily=Helvetica;fontSize=12;fontColor=default;" vertex="1" parent="1">
          <mxGeometry x="344" y="376" width="60" height="30" as="geometry" />
        </mxCell>
        <mxCell id="X90mC9pYVaTqxXo_M1r8-30" value="&lt;font style=&quot;font-size: 20px;&quot;&gt;......&lt;/font&gt;" style="text;html=1;align=center;verticalAlign=middle;whiteSpace=wrap;rounded=0;fontFamily=Helvetica;fontSize=12;fontColor=default;" vertex="1" parent="1">
          <mxGeometry x="413.5" y="406" width="60" height="30" as="geometry" />
        </mxCell>
        <mxCell id="X90mC9pYVaTqxXo_M1r8-31" value="Hyperparameter Input" style="text;html=1;strokeColor=none;fillColor=none;align=left;verticalAlign=middle;whiteSpace=wrap;rounded=0;fontStyle=1;fontFamily=Georgia;" vertex="1" parent="1">
          <mxGeometry x="596" y="84.94" width="174" height="23.88" as="geometry" />
        </mxCell>
        <mxCell id="X90mC9pYVaTqxXo_M1r8-32" value="" style="endArrow=classic;html=1;rounded=0;fontFamily=Helvetica;fontSize=12;fontColor=default;" edge="1" parent="1">
          <mxGeometry width="50" height="50" relative="1" as="geometry">
            <mxPoint x="413.16" y="590" as="sourcePoint" />
            <mxPoint x="413.16" y="530" as="targetPoint" />
          </mxGeometry>
        </mxCell>
        <mxCell id="X90mC9pYVaTqxXo_M1r8-33" value="" style="verticalLabelPosition=bottom;verticalAlign=top;html=1;shape=mxgraph.flowchart.summing_function;align=center;fontFamily=Helvetica;fontSize=12;" vertex="1" parent="1">
          <mxGeometry x="394" y="560" width="10" height="10" as="geometry" />
        </mxCell>
        <mxCell id="X90mC9pYVaTqxXo_M1r8-34" value="" style="shape=curlyBracket;whiteSpace=wrap;html=1;rounded=1;flipH=1;labelPosition=right;verticalLabelPosition=middle;align=left;verticalAlign=middle;fontFamily=Helvetica;fontSize=12;rotation=90;strokeWidth=2;" vertex="1" parent="1">
          <mxGeometry x="146.6" y="405.6" width="31" height="162.19" as="geometry" />
        </mxCell>
        <mxCell id="X90mC9pYVaTqxXo_M1r8-35" value="Encoder" style="text;html=1;strokeColor=none;fillColor=none;align=left;verticalAlign=middle;whiteSpace=wrap;rounded=0;fontStyle=1;fontFamily=Georgia;" vertex="1" parent="1">
          <mxGeometry x="132.6" y="508.06" width="59" height="15.88" as="geometry" />
        </mxCell>
        <mxCell id="X90mC9pYVaTqxXo_M1r8-36" value="" style="shape=curlyBracket;whiteSpace=wrap;html=1;rounded=1;flipH=1;labelPosition=right;verticalLabelPosition=middle;align=left;verticalAlign=middle;fontFamily=Helvetica;fontSize=12;rotation=90;strokeWidth=2;" vertex="1" parent="1">
          <mxGeometry x="581" y="690" width="31" height="162.19" as="geometry" />
        </mxCell>
        <mxCell id="X90mC9pYVaTqxXo_M1r8-37" value="Decoder" style="text;html=1;strokeColor=none;fillColor=none;align=left;verticalAlign=middle;whiteSpace=wrap;rounded=0;fontStyle=1;fontFamily=Georgia;" vertex="1" parent="1">
          <mxGeometry x="567" y="792.4599999999999" width="59" height="15.88" as="geometry" />
        </mxCell>
        <mxCell id="X90mC9pYVaTqxXo_M1r8-38" value="" style="shape=curlyBracket;whiteSpace=wrap;html=1;rounded=1;flipH=1;labelPosition=right;verticalLabelPosition=middle;align=left;verticalAlign=middle;fontFamily=Helvetica;fontSize=12;rotation=-90;strokeWidth=2;" vertex="1" parent="1">
          <mxGeometry x="436" y="151.96000000000004" width="31" height="162.19" as="geometry" />
        </mxCell>
        <mxCell id="X90mC9pYVaTqxXo_M1r8-39" value="Translator" style="text;html=1;strokeColor=none;fillColor=none;align=left;verticalAlign=middle;whiteSpace=wrap;rounded=0;fontStyle=1;fontFamily=Georgia;" vertex="1" parent="1">
          <mxGeometry x="422" y="197.49999999999991" width="59" height="15.88" as="geometry" />
        </mxCell>
        <mxCell id="X90mC9pYVaTqxXo_M1r8-40" value="" style="ellipse;whiteSpace=wrap;html=1;aspect=fixed;strokeColor=#d6b656;fillColor=#fff2cc;container=0;fontSize=9;" vertex="1" parent="1">
          <mxGeometry x="229" y="630" width="40" height="40" as="geometry" />
        </mxCell>
        <mxCell id="X90mC9pYVaTqxXo_M1r8-41" value="" style="ellipse;whiteSpace=wrap;html=1;aspect=fixed;fillColor=none;strokeWidth=1.5;container=0;fontSize=9;" vertex="1" parent="1">
          <mxGeometry x="236.53499999999997" y="637.53" width="24.93" height="24.93" as="geometry" />
        </mxCell>
        <mxCell id="X90mC9pYVaTqxXo_M1r8-42" value="" style="ellipse;whiteSpace=wrap;html=1;aspect=fixed;strokeColor=#d6b656;fillColor=#fff2cc;container=0;fontSize=9;" vertex="1" parent="1">
          <mxGeometry x="229" y="560" width="40" height="40" as="geometry" />
        </mxCell>
        <mxCell id="X90mC9pYVaTqxXo_M1r8-43" value="" style="ellipse;whiteSpace=wrap;html=1;aspect=fixed;fillColor=none;strokeWidth=1.5;container=0;fontSize=9;" vertex="1" parent="1">
          <mxGeometry x="236.53499999999997" y="567.53" width="24.93" height="24.93" as="geometry" />
        </mxCell>
        <mxCell id="X90mC9pYVaTqxXo_M1r8-44" value="" style="ellipse;whiteSpace=wrap;html=1;aspect=fixed;strokeColor=#82b366;fillColor=#d5e8d4;container=0;fontSize=9;" vertex="1" parent="1">
          <mxGeometry x="307.99999999999994" y="594" width="40" height="40" as="geometry" />
        </mxCell>
        <mxCell id="X90mC9pYVaTqxXo_M1r8-45" value="" style="ellipse;whiteSpace=wrap;html=1;aspect=fixed;fillColor=none;strokeWidth=1.5;container=0;fontSize=9;" vertex="1" parent="1">
          <mxGeometry x="315.99999999999994" y="601.53" width="24.93" height="24.93" as="geometry" />
        </mxCell>
        <mxCell id="X90mC9pYVaTqxXo_M1r8-46" value="" style="ellipse;whiteSpace=wrap;html=1;aspect=fixed;strokeColor=#82b366;fillColor=#d5e8d4;container=0;fontSize=9;" vertex="1" parent="1">
          <mxGeometry x="307.99999999999994" y="664" width="40" height="40" as="geometry" />
        </mxCell>
        <mxCell id="X90mC9pYVaTqxXo_M1r8-47" value="" style="ellipse;whiteSpace=wrap;html=1;aspect=fixed;fillColor=none;strokeWidth=1.5;container=0;fontSize=9;" vertex="1" parent="1">
          <mxGeometry x="315.5349999999999" y="671.53" width="24.93" height="24.93" as="geometry" />
        </mxCell>
        <mxCell id="X90mC9pYVaTqxXo_M1r8-48" value="" style="ellipse;whiteSpace=wrap;html=1;aspect=fixed;strokeColor=#82b366;fillColor=#d5e8d4;container=0;fontSize=9;" vertex="1" parent="1">
          <mxGeometry x="308.46" y="530" width="40" height="40" as="geometry" />
        </mxCell>
        <mxCell id="X90mC9pYVaTqxXo_M1r8-49" value="" style="ellipse;whiteSpace=wrap;html=1;aspect=fixed;fillColor=none;strokeWidth=1.5;container=0;fontSize=9;" vertex="1" parent="1">
          <mxGeometry x="315.99499999999983" y="537.53" width="24.93" height="24.93" as="geometry" />
        </mxCell>
        <mxCell id="X90mC9pYVaTqxXo_M1r8-50" value="" style="endArrow=none;html=1;rounded=0;fontSize=9;exitX=1;exitY=0.5;exitDx=0;exitDy=0;entryX=0;entryY=0.5;entryDx=0;entryDy=0;" edge="1" parent="1" source="X90mC9pYVaTqxXo_M1r8-42" target="X90mC9pYVaTqxXo_M1r8-44">
          <mxGeometry width="50" height="50" relative="1" as="geometry">
            <mxPoint x="273.142135623731" y="534.1421356237311" as="sourcePoint" />
            <mxPoint x="323.8578643762689" y="679.8578643762689" as="targetPoint" />
          </mxGeometry>
        </mxCell>
        <mxCell id="X90mC9pYVaTqxXo_M1r8-51" value="" style="endArrow=none;html=1;rounded=0;fontSize=9;exitX=1;exitY=0.5;exitDx=0;exitDy=0;entryX=0;entryY=0.5;entryDx=0;entryDy=0;" edge="1" parent="1" source="X90mC9pYVaTqxXo_M1r8-40" target="X90mC9pYVaTqxXo_M1r8-46">
          <mxGeometry width="50" height="50" relative="1" as="geometry">
            <mxPoint x="278.99999999999994" y="590" as="sourcePoint" />
            <mxPoint x="317.99999999999994" y="624" as="targetPoint" />
          </mxGeometry>
        </mxCell>
        <mxCell id="X90mC9pYVaTqxXo_M1r8-52" value="" style="endArrow=none;html=1;rounded=0;fontSize=9;exitX=1;exitY=0;exitDx=0;exitDy=0;entryX=0;entryY=0.5;entryDx=0;entryDy=0;" edge="1" parent="1" source="X90mC9pYVaTqxXo_M1r8-40" target="X90mC9pYVaTqxXo_M1r8-44">
          <mxGeometry width="50" height="50" relative="1" as="geometry">
            <mxPoint x="278.99999999999994" y="660" as="sourcePoint" />
            <mxPoint x="317.99999999999994" y="694" as="targetPoint" />
          </mxGeometry>
        </mxCell>
        <mxCell id="X90mC9pYVaTqxXo_M1r8-53" value="" style="endArrow=none;html=1;rounded=0;fontSize=9;exitX=1;exitY=0;exitDx=0;exitDy=0;entryX=0;entryY=1;entryDx=0;entryDy=0;" edge="1" parent="1" source="X90mC9pYVaTqxXo_M1r8-40" target="X90mC9pYVaTqxXo_M1r8-48">
          <mxGeometry width="50" height="50" relative="1" as="geometry">
            <mxPoint x="273.142135623731" y="645.8578643762689" as="sourcePoint" />
            <mxPoint x="317.99999999999994" y="624" as="targetPoint" />
          </mxGeometry>
        </mxCell>
        <mxCell id="X90mC9pYVaTqxXo_M1r8-54" value="" style="endArrow=none;html=1;rounded=0;fontSize=9;exitX=1;exitY=1;exitDx=0;exitDy=0;entryX=0;entryY=0;entryDx=0;entryDy=0;" edge="1" parent="1" source="X90mC9pYVaTqxXo_M1r8-42" target="X90mC9pYVaTqxXo_M1r8-46">
          <mxGeometry width="50" height="50" relative="1" as="geometry">
            <mxPoint x="273.142135623731" y="575.8578643762689" as="sourcePoint" />
            <mxPoint x="324.31786437627574" y="504.14213562372424" as="targetPoint" />
          </mxGeometry>
        </mxCell>
        <mxCell id="X90mC9pYVaTqxXo_M1r8-55" value="" style="endArrow=none;html=1;rounded=0;fontSize=9;exitX=1;exitY=0.5;exitDx=0;exitDy=0;entryX=0;entryY=0.5;entryDx=0;entryDy=0;" edge="1" parent="1" source="X90mC9pYVaTqxXo_M1r8-42" target="X90mC9pYVaTqxXo_M1r8-48">
          <mxGeometry width="50" height="50" relative="1" as="geometry">
            <mxPoint x="273.142135623731" y="604.1421356237311" as="sourcePoint" />
            <mxPoint x="323.8578643762689" y="679.8578643762689" as="targetPoint" />
          </mxGeometry>
        </mxCell>
        <mxCell id="X90mC9pYVaTqxXo_M1r8-56" value="" style="ellipse;whiteSpace=wrap;html=1;aspect=fixed;strokeColor=#d6b656;fillColor=#fff2cc;container=0;fontSize=9;" vertex="1" parent="1">
          <mxGeometry x="229" y="630" width="40" height="40" as="geometry" />
        </mxCell>
        <mxCell id="X90mC9pYVaTqxXo_M1r8-57" value="" style="ellipse;whiteSpace=wrap;html=1;aspect=fixed;fillColor=none;strokeWidth=1.5;container=0;fontSize=9;" vertex="1" parent="1">
          <mxGeometry x="236.53499999999997" y="637.53" width="24.93" height="24.93" as="geometry" />
        </mxCell>
        <mxCell id="X90mC9pYVaTqxXo_M1r8-58" value="" style="ellipse;whiteSpace=wrap;html=1;aspect=fixed;strokeColor=#d6b656;fillColor=#fff2cc;container=0;fontSize=9;" vertex="1" parent="1">
          <mxGeometry x="229" y="560" width="40" height="40" as="geometry" />
        </mxCell>
        <mxCell id="X90mC9pYVaTqxXo_M1r8-59" value="" style="ellipse;whiteSpace=wrap;html=1;aspect=fixed;fillColor=none;strokeWidth=1.5;container=0;fontSize=9;" vertex="1" parent="1">
          <mxGeometry x="236.53499999999997" y="567.53" width="24.93" height="24.93" as="geometry" />
        </mxCell>
        <mxCell id="X90mC9pYVaTqxXo_M1r8-60" value="" style="ellipse;whiteSpace=wrap;html=1;aspect=fixed;strokeColor=#82b366;fillColor=#d5e8d4;container=0;fontSize=9;" vertex="1" parent="1">
          <mxGeometry x="307.99999999999994" y="594" width="40" height="40" as="geometry" />
        </mxCell>
        <mxCell id="X90mC9pYVaTqxXo_M1r8-61" value="" style="ellipse;whiteSpace=wrap;html=1;aspect=fixed;fillColor=none;strokeWidth=1.5;container=0;fontSize=9;" vertex="1" parent="1">
          <mxGeometry x="315.99999999999994" y="601.53" width="24.93" height="24.93" as="geometry" />
        </mxCell>
        <mxCell id="X90mC9pYVaTqxXo_M1r8-62" value="" style="ellipse;whiteSpace=wrap;html=1;aspect=fixed;strokeColor=#82b366;fillColor=#d5e8d4;container=0;fontSize=9;" vertex="1" parent="1">
          <mxGeometry x="307.99999999999994" y="664" width="40" height="40" as="geometry" />
        </mxCell>
        <mxCell id="X90mC9pYVaTqxXo_M1r8-63" value="" style="ellipse;whiteSpace=wrap;html=1;aspect=fixed;fillColor=none;strokeWidth=1.5;container=0;fontSize=9;" vertex="1" parent="1">
          <mxGeometry x="315.5349999999999" y="671.53" width="24.93" height="24.93" as="geometry" />
        </mxCell>
        <mxCell id="X90mC9pYVaTqxXo_M1r8-64" value="" style="ellipse;whiteSpace=wrap;html=1;aspect=fixed;strokeColor=#82b366;fillColor=#d5e8d4;container=0;fontSize=9;" vertex="1" parent="1">
          <mxGeometry x="308.46" y="530" width="40" height="40" as="geometry" />
        </mxCell>
        <mxCell id="X90mC9pYVaTqxXo_M1r8-65" value="" style="ellipse;whiteSpace=wrap;html=1;aspect=fixed;fillColor=none;strokeWidth=1.5;container=0;fontSize=9;" vertex="1" parent="1">
          <mxGeometry x="315.99499999999983" y="537.53" width="24.93" height="24.93" as="geometry" />
        </mxCell>
        <mxCell id="X90mC9pYVaTqxXo_M1r8-66" value="" style="endArrow=none;html=1;rounded=0;fontSize=9;exitX=1;exitY=0.5;exitDx=0;exitDy=0;entryX=0;entryY=0.5;entryDx=0;entryDy=0;" edge="1" parent="1" source="X90mC9pYVaTqxXo_M1r8-58" target="X90mC9pYVaTqxXo_M1r8-60">
          <mxGeometry width="50" height="50" relative="1" as="geometry">
            <mxPoint x="273.142135623731" y="534.1421356237311" as="sourcePoint" />
            <mxPoint x="323.8578643762689" y="679.8578643762689" as="targetPoint" />
          </mxGeometry>
        </mxCell>
        <mxCell id="X90mC9pYVaTqxXo_M1r8-67" value="" style="endArrow=none;html=1;rounded=0;fontSize=9;exitX=1;exitY=0.5;exitDx=0;exitDy=0;entryX=0;entryY=0.5;entryDx=0;entryDy=0;" edge="1" parent="1" source="X90mC9pYVaTqxXo_M1r8-56" target="X90mC9pYVaTqxXo_M1r8-62">
          <mxGeometry width="50" height="50" relative="1" as="geometry">
            <mxPoint x="278.99999999999994" y="590" as="sourcePoint" />
            <mxPoint x="317.99999999999994" y="624" as="targetPoint" />
          </mxGeometry>
        </mxCell>
        <mxCell id="X90mC9pYVaTqxXo_M1r8-68" value="" style="endArrow=none;html=1;rounded=0;fontSize=9;exitX=1;exitY=0;exitDx=0;exitDy=0;entryX=0;entryY=0.5;entryDx=0;entryDy=0;" edge="1" parent="1" source="X90mC9pYVaTqxXo_M1r8-56" target="X90mC9pYVaTqxXo_M1r8-60">
          <mxGeometry width="50" height="50" relative="1" as="geometry">
            <mxPoint x="278.99999999999994" y="660" as="sourcePoint" />
            <mxPoint x="317.99999999999994" y="694" as="targetPoint" />
          </mxGeometry>
        </mxCell>
        <mxCell id="X90mC9pYVaTqxXo_M1r8-69" value="" style="endArrow=none;html=1;rounded=0;fontSize=9;exitX=1;exitY=0;exitDx=0;exitDy=0;entryX=0;entryY=1;entryDx=0;entryDy=0;" edge="1" parent="1" source="X90mC9pYVaTqxXo_M1r8-56" target="X90mC9pYVaTqxXo_M1r8-64">
          <mxGeometry width="50" height="50" relative="1" as="geometry">
            <mxPoint x="273.142135623731" y="645.8578643762689" as="sourcePoint" />
            <mxPoint x="317.99999999999994" y="624" as="targetPoint" />
          </mxGeometry>
        </mxCell>
        <mxCell id="X90mC9pYVaTqxXo_M1r8-70" value="" style="endArrow=none;html=1;rounded=0;fontSize=9;exitX=1;exitY=1;exitDx=0;exitDy=0;entryX=0;entryY=0;entryDx=0;entryDy=0;" edge="1" parent="1" source="X90mC9pYVaTqxXo_M1r8-58" target="X90mC9pYVaTqxXo_M1r8-62">
          <mxGeometry width="50" height="50" relative="1" as="geometry">
            <mxPoint x="273.142135623731" y="575.8578643762689" as="sourcePoint" />
            <mxPoint x="324.31786437627574" y="504.14213562372424" as="targetPoint" />
          </mxGeometry>
        </mxCell>
        <mxCell id="X90mC9pYVaTqxXo_M1r8-71" value="" style="endArrow=none;html=1;rounded=0;fontSize=9;exitX=1;exitY=0.5;exitDx=0;exitDy=0;entryX=0;entryY=0.5;entryDx=0;entryDy=0;" edge="1" parent="1" source="X90mC9pYVaTqxXo_M1r8-58" target="X90mC9pYVaTqxXo_M1r8-64">
          <mxGeometry width="50" height="50" relative="1" as="geometry">
            <mxPoint x="273.142135623731" y="604.1421356237311" as="sourcePoint" />
            <mxPoint x="323.8578643762689" y="679.8578643762689" as="targetPoint" />
          </mxGeometry>
        </mxCell>
      </root>
    </mxGraphModel>
  </diagram>
</mxfile>
